<svg width="20" height="20" viewBox="0 0 20 20" fill="none" xmlns="http://www.w3.org/2000/svg">
<path d="M10.8331 9.86678C10.8331 10.2534 10.5197 10.5668 10.1331 10.5668C9.74651 10.5668 9.43311 10.2534 9.43311 9.86678C9.43311 9.48018 9.74651 9.16678 10.1331 9.16678C10.5197 9.16678 10.8331 9.48018 10.8331 9.86678Z" fill="white" stroke="white" stroke-width="1.16667" stroke-linecap="round" stroke-linejoin="round"/>
<path d="M5.0001 9.86678C5.0001 10.2534 4.6867 10.5668 4.3001 10.5668C3.9135 10.5668 3.6001 10.2534 3.6001 9.86678C3.6001 9.48018 3.9135 9.16678 4.3001 9.16678C4.6867 9.16678 5.0001 9.48018 5.0001 9.86678Z" fill="white" stroke="white" stroke-width="1.16667" stroke-linecap="round" stroke-linejoin="round"/>
<path d="M16.6666 9.86678C16.6666 10.2534 16.3532 10.5668 15.9666 10.5668C15.58 10.5668 15.2666 10.2534 15.2666 9.86678C15.2666 9.48018 15.58 9.16678 15.9666 9.16678C16.3532 9.16678 16.6666 9.48018 16.6666 9.86678Z" fill="white" stroke="white" stroke-width="1.16667" stroke-linecap="round" stroke-linejoin="round"/>
</svg>
